# xmcd
#
# Track frame offsets:
#	150
#	17855
#	35670
#	53927
#	72472
#	93292
#	119730
#	142140
#	161482
#	183495
#	210482
#	225087
#	245017
#
# Disc length: 4250 seconds
#
# Revision: 0
# Processed by: cddbd v1.5.2PL0 Copyright (c) Steve Scherf et al.
# Submitted via: EasyCDDAExtractor 2010.6.0.0
#
DISCID=bb10980d
DTITLE=Mistigri - Tout feu
DYEAR=1999
DGENRE=
TTITLE0=Mange-minute
TTITLE1=Envoie-moi au ciel
TTITLE2=Nombril
TTITLE3=L'amer
TTITLE4=Tout feu tout flamme
TTITLE5=Poupée de verre
TTITLE6=Mauvais sang
TTITLE7=Dare Dare
TTITLE8=Comète
TTITLE9=Toupie
TTITLE10=Bidibop
TTITLE11=Malaise
TTITLE12=Une journée d'été
EXTD=
EXTT0=
EXTT1=
EXTT2=
EXTT3=
EXTT4=
EXTT5=
EXTT6=
EXTT7=
EXTT8=
EXTT9=
EXTT10=
EXTT11=
EXTT12=
PLAYORDER=
